<svg xmlns="http://www.w3.org/2000/svg" width="36.235" height="41.143" viewBox="0 0 36.235 41.143">
  <g id="Group_28104" data-name="Group 28104" transform="translate(5979.633 3227)">
    <g id="Group_28103" data-name="Group 28103">
      <path id="Path_5351" data-name="Path 5351" d="M-5978.667-3210.333l3,11.333-1.333,8,10.333,2.333,11-2.333,11,3.667-2-11.667,2-8.333H-5952l-3.667,4.333v3.286l9,2.572" fill="none" stroke="#b22c5f" stroke-width="2"/>
      <path id="Path_5352" data-name="Path 5352" d="M-5955.429-3191.143v-8.429l-12.143,2.429v-9.714l7-1.857" fill="none" stroke="#b22c5f" stroke-width="2"/>
      <path id="Path_5353" data-name="Path 5353" d="M-5967.571-3206.714l-10.491-2.911" fill="none" stroke="#b22c5f" stroke-width="2"/>
      <path id="Path_5354" data-name="Path 5354" d="M-5975.714-3198.833l7.857,1.548v8.428" fill="none" stroke="#b22c5f" stroke-width="2"/>
    </g>
    <g id="Icon_feather-map-pin" data-name="Icon feather-map-pin" transform="translate(-5969.167 -3227.5)">
      <path id="Path_5355" data-name="Path 5355" d="M22.5,10.5c0,7-9,13-9,13s-9-6-9-13a9,9,0,0,1,18,0Z" fill="none" stroke="#b22c5f" stroke-linecap="round" stroke-linejoin="round" stroke-width="2"/>
      <path id="Path_5356" data-name="Path 5356" d="M22.5,15A4.5,4.5,0,1,1,18,10.5,4.5,4.5,0,0,1,22.5,15Z" transform="translate(-4.5 -4.125)" fill="none" stroke="#b22c5f" stroke-linecap="round" stroke-linejoin="round" stroke-width="2"/>
    </g>
  </g>
</svg>
