<svg xmlns="http://www.w3.org/2000/svg" width="48.45" height="34.641" viewBox="0 0 48.45 34.641">
  <g id="Group_28102" data-name="Group 28102" transform="translate(6276.469 3228.735)">
    <path id="Path_5344" data-name="Path 5344" d="M-6275.469-3222.943l3.333-4.792h32.917l3.958,4.792v11.25l-3.958,5.417h-32.917l-3.333-5.417Z" fill="none" stroke="#b22c5f" stroke-linecap="round" stroke-linejoin="round" stroke-width="2"/>
    <path id="Path_5345" data-name="Path 5345" d="M-6268.8-3221.277h14.583" fill="none" stroke="#b22c5f" stroke-width="2"/>
    <path id="Path_5346" data-name="Path 5346" d="M-6268.8-3217.006h14.636" fill="none" stroke="#b22c5f" stroke-width="2"/>
    <path id="Path_5347" data-name="Path 5347" d="M-6268.8-3212.25h9.719" fill="none" stroke="#b22c5f" stroke-width="2"/>
    <path id="Path_5348" data-name="Path 5348" d="M-6246.583-3221.75h7.5v9.417h-7.167l-.016-10.417" fill="none" stroke="#b22c5f" stroke-width="2"/>
    <g id="Ellipse_998" data-name="Ellipse 998" transform="translate(-6251 -3224)" fill="#fff" stroke="#b22c5f" stroke-width="2">
      <circle cx="1" cy="1" r="1" stroke="none"/>
      <circle cx="1" cy="1" fill="none"/>
    </g>
    <g id="Ellipse_999" data-name="Ellipse 999" transform="translate(-6251 -3219)" fill="#fff" stroke="#b22c5f" stroke-width="2">
      <circle cx="1" cy="1" r="1" stroke="none"/>
      <circle cx="1" cy="1" fill="none"/>
    </g>
    <g id="Ellipse_1000" data-name="Ellipse 1000" transform="translate(-6251 -3215)" fill="#fff" stroke="#b22c5f" stroke-width="2">
      <circle cx="1" cy="1" r="1" stroke="none"/>
      <circle cx="1" cy="1" fill="none"/>
    </g>
    <g id="Ellipse_1001" data-name="Ellipse 1001" transform="translate(-6251 -3211)" fill="#fff" stroke="#b22c5f" stroke-width="2">
      <circle cx="1" cy="1" r="1" stroke="none"/>
      <circle cx="1" cy="1" fill="none"/>
    </g>
    <g id="Ellipse_1002" data-name="Ellipse 1002" transform="translate(-6245 -3206)" fill="#fff" stroke="#b22c5f" stroke-width="2">
      <circle cx="1" cy="1" r="1" stroke="none"/>
      <circle cx="1" cy="1" fill="none"/>
    </g>
    <g id="Ellipse_1003" data-name="Ellipse 1003" transform="translate(-6246 -3203)" fill="#fff" stroke="#b22c5f" stroke-width="2">
      <circle cx="1" cy="1" r="1" stroke="none"/>
      <circle cx="1" cy="1" fill="none"/>
    </g>
    <path id="Path_5349" data-name="Path 5349" d="M-6262.625-3206.277l23.5,10.464s4.313,1.813,6.125-1.062,5.75-11.812,3.063-15.062a15.936,15.936,0,0,0-5.312-4.375" fill="none" stroke="#b22c5f" stroke-width="2"/>
    <path id="Path_5350" data-name="Path 5350" d="M-6235.26-3211s4.073,5.188,1.7,8.375-5.937,0-5.937,0a4.808,4.808,0,0,1-.562-3.5" fill="none" stroke="#b22c5f" stroke-width="2"/>
  </g>
</svg>
