<svg xmlns="http://www.w3.org/2000/svg" width="47.967" height="35.048" viewBox="0 0 47.967 35.048">
  <g id="Group_28101" data-name="Group 28101" transform="translate(6574.374 3228.531)">
    <g id="Group_28098" data-name="Group 28098" transform="translate(-0.404)">
      <path id="Path_5336" data-name="Path 5336" d="M-6557.429-3223.428l.034,25.143h-8.034l-3.714-25.143Z" transform="translate(-0.042 -0.156)" fill="none" stroke="#b22c5f" stroke-width="2"/>
      <path id="Path_5337" data-name="Path 5337" d="M-6570.969-3227.531h15.281a2.053,2.053,0,0,1,2,2.125,1.72,1.72,0,0,1-2,1.813h-15.281s-1.969-.062-2-1.812S-6570.969-3227.531-6570.969-3227.531Z" fill="none" stroke="#b22c5f" stroke-width="2"/>
      <path id="Path_5338" data-name="Path 5338" d="M-6564.031-3198.094V-3196a4.54,4.54,0,0,0,2.813,1.516,4.443,4.443,0,0,0,2.7-1.516v-2.422" fill="none" stroke="#b22c5f" stroke-linecap="round" stroke-linejoin="round" stroke-width="2"/>
    </g>
    <g id="Group_28099" data-name="Group 28099" transform="translate(26.282)">
      <path id="Path_5336-2" data-name="Path 5336" d="M-6569.109-3223.428l-.033,25.143h8.032l3.714-25.143Z" transform="translate(-0.077 -0.156)" fill="none" stroke="#b22c5f" stroke-width="2"/>
      <path id="Path_5337-2" data-name="Path 5337" d="M-6555.689-3227.531h-15.28a2.052,2.052,0,0,0-2,2.125,1.72,1.72,0,0,0,2,1.813h15.28s1.969-.062,2-1.812S-6555.689-3227.531-6555.689-3227.531Z" transform="translate(0)" fill="none" stroke="#b22c5f" stroke-width="2"/>
      <path id="Path_5338-2" data-name="Path 5338" d="M-6558.516-3198.094V-3196a4.54,4.54,0,0,1-2.812,1.516,4.443,4.443,0,0,1-2.7-1.516v-2.422" transform="translate(-4.11)" fill="none" stroke="#b22c5f" stroke-linecap="round" stroke-linejoin="round" stroke-width="2"/>
    </g>
    <g id="Group_28100" data-name="Group 28100">
      <path id="Path_5339" data-name="Path 5339" d="M-6570.969-3227.531h15.281a2.053,2.053,0,0,1,2,2.125,1.72,1.72,0,0,1-2,1.813h-15.281s-1.969-.062-2-1.812S-6570.969-3227.531-6570.969-3227.531Z" transform="translate(-9775.947 3353.77) rotate(90)" fill="none" stroke="#b22c5f" stroke-width="2"/>
      <path id="Path_5340" data-name="Path 5340" d="M-6552.687-3213.937h-4.969" fill="none" stroke="#b22c5f" stroke-width="2"/>
      <path id="Path_5341" data-name="Path 5341" d="M-6552.5-3204.969h-5.062" fill="none" stroke="#b22c5f" stroke-width="2"/>
      <path id="Path_5342" data-name="Path 5342" d="M-6548.25-3213.937h5.344" fill="none" stroke="#b22c5f" stroke-width="2"/>
      <path id="Path_5343" data-name="Path 5343" d="M-6548.125-3204.969h5.063" fill="none" stroke="#b22c5f" stroke-width="2"/>
    </g>
  </g>
</svg>
